<?xml version="1.0" encoding="UTF-8"?>
<svg xmlns="http://www.w3.org/2000/svg" width="1200" height="1200" viewBox="0 0 1200 1200" font-family="-apple-system, BlinkMacSystemFont, 'Segoe UI', Roboto, sans-serif">
  <defs>
    <!-- Background gradient -->
    <linearGradient id="bg" x1="0" y1="0" x2="1" y2="1">
      <stop offset="0%" stop-color="#0d9488"/>
      <stop offset="100%" stop-color="#0c4a6e"/>
    </linearGradient>
    <!-- Soft glow for the headline -->
    <radialGradient id="glow" cx="0.5" cy="0.5" r="0.6">
      <stop offset="0%" stop-color="#5eead4" stop-opacity="0.35"/>
      <stop offset="100%" stop-color="#5eead4" stop-opacity="0"/>
    </radialGradient>
    <!-- Pill background -->
    <linearGradient id="pill" x1="0" y1="0" x2="0" y2="1">
      <stop offset="0%" stop-color="rgba(255,255,255,0.18)"/>
      <stop offset="100%" stop-color="rgba(255,255,255,0.06)"/>
    </linearGradient>
    <!-- Phone mock screen -->
    <linearGradient id="phone" x1="0" y1="0" x2="0" y2="1">
      <stop offset="0%" stop-color="#f8fafc"/>
      <stop offset="100%" stop-color="#e2e8f0"/>
    </linearGradient>
    <!-- Chat bubble -->
    <linearGradient id="bubble-out" x1="0" y1="0" x2="0" y2="1">
      <stop offset="0%" stop-color="#0d9488"/>
      <stop offset="100%" stop-color="#0f766e"/>
    </linearGradient>
  </defs>

  <!-- Background -->
  <rect width="1200" height="1200" fill="url(#bg)"/>
  <!-- Subtle dot grid texture -->
  <g opacity="0.10" fill="white">
    <circle cx="60" cy="60" r="2"/><circle cx="180" cy="60" r="2"/><circle cx="300" cy="60" r="2"/><circle cx="420" cy="60" r="2"/><circle cx="540" cy="60" r="2"/><circle cx="660" cy="60" r="2"/><circle cx="780" cy="60" r="2"/><circle cx="900" cy="60" r="2"/><circle cx="1020" cy="60" r="2"/><circle cx="1140" cy="60" r="2"/>
    <circle cx="60" cy="180" r="2"/><circle cx="180" cy="180" r="2"/><circle cx="300" cy="180" r="2"/><circle cx="420" cy="180" r="2"/><circle cx="540" cy="180" r="2"/><circle cx="660" cy="180" r="2"/><circle cx="780" cy="180" r="2"/><circle cx="900" cy="180" r="2"/><circle cx="1020" cy="180" r="2"/><circle cx="1140" cy="180" r="2"/>
    <circle cx="60" cy="1080" r="2"/><circle cx="180" cy="1080" r="2"/><circle cx="300" cy="1080" r="2"/><circle cx="420" cy="1080" r="2"/><circle cx="540" cy="1080" r="2"/><circle cx="660" cy="1080" r="2"/><circle cx="780" cy="1080" r="2"/><circle cx="900" cy="1080" r="2"/><circle cx="1020" cy="1080" r="2"/><circle cx="1140" cy="1080" r="2"/>
    <circle cx="60" cy="1140" r="2"/><circle cx="180" cy="1140" r="2"/><circle cx="300" cy="1140" r="2"/><circle cx="420" cy="1140" r="2"/><circle cx="540" cy="1140" r="2"/><circle cx="660" cy="1140" r="2"/><circle cx="780" cy="1140" r="2"/><circle cx="900" cy="1140" r="2"/><circle cx="1020" cy="1140" r="2"/><circle cx="1140" cy="1140" r="2"/>
  </g>
  <!-- Glow behind headline -->
  <circle cx="600" cy="500" r="500" fill="url(#glow)"/>

  <!-- Top brand mark -->
  <g transform="translate(80, 80)">
    <rect width="64" height="64" rx="14" fill="white"/>
    <text x="32" y="48" text-anchor="middle" fill="#0d9488" font-size="36" font-weight="900">L</text>
    <text x="84" y="32" fill="white" font-size="28" font-weight="800" letter-spacing="-0.5">Loglinkr</text>
    <text x="84" y="56" fill="rgba(255,255,255,0.75)" font-size="15" font-weight="500">Smart ERP for fab plants</text>
  </g>
  <!-- Top-right tagline -->
  <g transform="translate(1120, 100)">
    <text x="0" y="0" text-anchor="end" fill="rgba(255,255,255,0.7)" font-size="13" font-weight="600" letter-spacing="2">MADE IN INDIA</text>
    <text x="0" y="22" text-anchor="end" fill="rgba(255,255,255,0.45)" font-size="12">For SMEs · Job-work · Fabrication</text>
  </g>

  <!-- Headline block -->
  <g transform="translate(80, 230)">
    <text x="0" y="0" fill="white" font-size="76" font-weight="900" letter-spacing="-2">Run your factory</text>
    <text x="0" y="84" fill="white" font-size="76" font-weight="900" letter-spacing="-2">from</text>
    <text x="295" y="84" fill="#5eead4" font-size="76" font-weight="900" letter-spacing="-2">one app.</text>
    <text x="0" y="148" fill="rgba(255,255,255,0.85)" font-size="22" font-weight="500">WhatsApp-style chat + AI bill reading + project &amp; quality tracking</text>
    <text x="0" y="178" fill="rgba(255,255,255,0.85)" font-size="22" font-weight="500">— all in your pocket.</text>
  </g>

  <!-- Feature pills row -->
  <g transform="translate(80, 470)">
    <!-- Pill 1: chat-driven -->
    <g transform="translate(0,0)">
      <rect width="240" height="58" rx="29" fill="url(#pill)" stroke="rgba(255,255,255,0.25)"/>
      <text x="22" y="38" font-size="24">💬</text>
      <text x="62" y="36" fill="white" font-size="14" font-weight="700">Chat-first ops</text>
      <text x="62" y="50" fill="rgba(255,255,255,0.7)" font-size="11">Tasks · alerts · approvals</text>
    </g>
    <!-- Pill 2: AI OCR -->
    <g transform="translate(260,0)">
      <rect width="240" height="58" rx="29" fill="url(#pill)" stroke="rgba(255,255,255,0.25)"/>
      <text x="22" y="38" font-size="24">📷</text>
      <text x="62" y="36" fill="white" font-size="14" font-weight="700">Photo → Bill</text>
      <text x="62" y="50" fill="rgba(255,255,255,0.7)" font-size="11">AI reads DCs / invoices</text>
    </g>
    <!-- Pill 3: project tracking -->
    <g transform="translate(520,0)">
      <rect width="240" height="58" rx="29" fill="url(#pill)" stroke="rgba(255,255,255,0.25)"/>
      <text x="22" y="38" font-size="24">📐</text>
      <text x="62" y="36" fill="white" font-size="14" font-weight="700">Project tracker</text>
      <text x="62" y="50" fill="rgba(255,255,255,0.7)" font-size="11">Stages · weight · GRN</text>
    </g>
    <!-- Pill 4: cut planner -->
    <g transform="translate(780,0)">
      <rect width="240" height="58" rx="29" fill="url(#pill)" stroke="rgba(255,255,255,0.25)"/>
      <text x="22" y="38" font-size="24">✂️</text>
      <text x="62" y="36" fill="white" font-size="14" font-weight="700">Cut planner</text>
      <text x="62" y="50" fill="rgba(255,255,255,0.7)" font-size="11">1D &amp; 2D · auto-nest</text>
    </g>
  </g>

  <!-- Second row of pills -->
  <g transform="translate(80, 545)">
    <g transform="translate(0,0)">
      <rect width="240" height="58" rx="29" fill="url(#pill)" stroke="rgba(255,255,255,0.25)"/>
      <text x="22" y="38" font-size="24">📊</text>
      <text x="62" y="36" fill="white" font-size="14" font-weight="700">Live dashboards</text>
      <text x="62" y="50" fill="rgba(255,255,255,0.7)" font-size="11">People · projects · NCRs</text>
    </g>
    <g transform="translate(260,0)">
      <rect width="240" height="58" rx="29" fill="url(#pill)" stroke="rgba(255,255,255,0.25)"/>
      <text x="22" y="38" font-size="24">🎙</text>
      <text x="62" y="36" fill="white" font-size="14" font-weight="700">Voice notes + MoM</text>
      <text x="62" y="50" fill="rgba(255,255,255,0.7)" font-size="11">AI summary + action list</text>
    </g>
    <g transform="translate(520,0)">
      <rect width="240" height="58" rx="29" fill="url(#pill)" stroke="rgba(255,255,255,0.25)"/>
      <text x="22" y="38" font-size="24">🏭</text>
      <text x="62" y="36" fill="white" font-size="14" font-weight="700">Vendor history</text>
      <text x="62" y="50" fill="rgba(255,255,255,0.7)" font-size="11">Pricing · OTP · ledger</text>
    </g>
    <g transform="translate(780,0)">
      <rect width="240" height="58" rx="29" fill="url(#pill)" stroke="rgba(255,255,255,0.25)"/>
      <text x="22" y="38" font-size="24">🛡</text>
      <text x="62" y="36" fill="white" font-size="14" font-weight="700">IATF audit ready</text>
      <text x="62" y="50" fill="rgba(255,255,255,0.7)" font-size="11">NCRs · PPAP · LPA</text>
    </g>
  </g>

  <!-- Centre showcase: phone mock + speech bubble -->
  <g transform="translate(420, 660)">
    <!-- Phone -->
    <rect x="0" y="0" width="240" height="430" rx="32" fill="#0f172a"/>
    <rect x="10" y="10" width="220" height="410" rx="24" fill="url(#phone)"/>
    <!-- Notch -->
    <rect x="90" y="20" width="60" height="14" rx="7" fill="#0f172a"/>
    <!-- App header bar -->
    <rect x="10" y="44" width="220" height="40" fill="#0d9488"/>
    <text x="120" y="68" text-anchor="middle" fill="white" font-size="12" font-weight="700">Bills &amp; expenses · OCR</text>
    <!-- Chat thread mock -->
    <g transform="translate(20, 96)">
      <!-- Their image bubble -->
      <rect x="0" y="0" width="130" height="80" rx="10" fill="white" stroke="#e2e8f0"/>
      <rect x="6" y="6" width="118" height="58" rx="6" fill="#cbd5e1"/>
      <text x="65" y="40" text-anchor="middle" font-size="22">🧾</text>
      <text x="6" y="76" fill="#475569" font-size="9" font-weight="600">Bill from Tata Steel</text>
      <!-- AI reply bubble -->
      <rect x="70" y="96" width="140" height="92" rx="10" fill="url(#bubble-out)"/>
      <text x="80" y="115" fill="white" font-size="10" font-weight="700">✨ AI processed</text>
      <text x="80" y="132" fill="white" font-size="9">Vendor: Tata Steel</text>
      <text x="80" y="146" fill="white" font-size="9">Doc#: TS-INV-9921</text>
      <text x="80" y="160" fill="white" font-size="9">Amount: ₹2,18,300</text>
      <text x="80" y="176" fill="rgba(255,255,255,0.85)" font-size="8">Tap → Documents · GRN ready</text>
      <!-- Task suggestion -->
      <rect x="0" y="204" width="200" height="70" rx="10" fill="#fef3c7" stroke="#fde68a"/>
      <text x="10" y="222" fill="#92400e" font-size="10" font-weight="700">⚠ Suggested task</text>
      <text x="10" y="238" fill="#7c2d12" font-size="9">Verify stock receipt against PO</text>
      <text x="10" y="252" fill="#7c2d12" font-size="9">before payment release.</text>
      <text x="10" y="266" fill="#92400e" font-size="9" font-weight="700">Assigned: Karthik · Due tomorrow</text>
    </g>
    <!-- Bottom nav strip -->
    <rect x="10" y="380" width="220" height="40" fill="#f1f5f9"/>
    <g font-size="9" fill="#475569" text-anchor="middle" font-weight="600">
      <text x="40" y="402">🏠</text><text x="40" y="414">Home</text>
      <text x="80" y="402">📋</text><text x="80" y="414">Tasks</text>
      <text x="120" y="402">💬</text><text x="120" y="414">Chat</text>
      <text x="160" y="402">📁</text><text x="160" y="414">Docs</text>
      <text x="200" y="402">⋯</text><text x="200" y="414">More</text>
    </g>
  </g>

  <!-- Left side stat block -->
  <g transform="translate(80, 720)">
    <rect width="290" height="120" rx="14" fill="rgba(255,255,255,0.12)" stroke="rgba(255,255,255,0.25)"/>
    <text x="20" y="40" fill="white" font-size="36" font-weight="900">10×</text>
    <text x="20" y="62" fill="rgba(255,255,255,0.85)" font-size="13" font-weight="600">cheaper than legacy ERP</text>
    <line x1="20" y1="76" x2="270" y2="76" stroke="rgba(255,255,255,0.18)"/>
    <text x="20" y="98" fill="white" font-size="13" font-weight="700">From ₹2,999/month</text>
    <text x="20" y="113" fill="rgba(255,255,255,0.7)" font-size="11">First 15 days · trial · no card</text>
  </g>

  <!-- Right side benefit -->
  <g transform="translate(720, 720)">
    <rect width="400" height="120" rx="14" fill="rgba(255,255,255,0.12)" stroke="rgba(255,255,255,0.25)"/>
    <text x="20" y="36" fill="white" font-size="15" font-weight="800">Built with Marvel Machines.</text>
    <text x="20" y="58" fill="rgba(255,255,255,0.85)" font-size="13">Tested on a real fab floor in Tamil Nadu.</text>
    <text x="20" y="80" fill="rgba(255,255,255,0.85)" font-size="13">Designed for the way Indian SMEs</text>
    <text x="20" y="96" fill="rgba(255,255,255,0.85)" font-size="13">actually run — WhatsApp-shaped, voice-first.</text>
    <text x="380" y="110" text-anchor="end" fill="#5eead4" font-size="11" font-weight="700">— 14 plants live · 6 months</text>
  </g>

  <!-- CTA strip -->
  <g transform="translate(80, 880)">
    <rect width="1040" height="120" rx="20" fill="white"/>
    <text x="40" y="48" fill="#0d9488" font-size="32" font-weight="900" letter-spacing="-1">Try it free for 15 days.</text>
    <text x="40" y="80" fill="#334155" font-size="16" font-weight="500">No card. One-tap WhatsApp invite. Go live in under an hour.</text>
    <!-- Button -->
    <rect x="730" y="35" width="280" height="56" rx="28" fill="#0d9488"/>
    <text x="870" y="70" text-anchor="middle" fill="white" font-size="18" font-weight="800">loglinkr.com →</text>
  </g>

  <!-- Footer contact -->
  <g transform="translate(80, 1060)">
    <text x="0" y="0" fill="rgba(255,255,255,0.75)" font-size="14" font-weight="600">📞 +91 95669 79435</text>
    <text x="200" y="0" fill="rgba(255,255,255,0.75)" font-size="14" font-weight="600">✉ team@loglinkr.com</text>
    <text x="440" y="0" fill="rgba(255,255,255,0.75)" font-size="14" font-weight="600">🌐 loglinkr.com</text>
    <text x="1040" y="0" text-anchor="end" fill="rgba(255,255,255,0.55)" font-size="12">Loglinkr · 2026</text>
  </g>
</svg>
